<mxfile host="app.diagrams.net" modified="2020-05-26T09:58:25.070Z" agent="5.0 (Windows NT 10.0; Win64; x64) AppleWebKit/537.36 (KHTML, like Gecko) Chrome/83.0.4103.61 Safari/537.36 Edg/83.0.478.37" etag="Idq5D8aIk2Q5fUo5ubAr" version="13.1.3" type="github">
  <diagram id="wAX-wMHq2Bv0zb3NqRvH" name="Page-1">
    <mxGraphModel dx="873" dy="456" grid="1" gridSize="10" guides="1" tooltips="1" connect="1" arrows="1" fold="1" page="1" pageScale="1" pageWidth="827" pageHeight="1169" math="0" shadow="0">
      <root>
        <mxCell id="0" />
        <mxCell id="1" parent="0" />
        <mxCell id="S0M7ZQBZUYb1YyoEZiFY-18" style="edgeStyle=orthogonalEdgeStyle;rounded=0;orthogonalLoop=1;jettySize=auto;html=1;" parent="1" source="S0M7ZQBZUYb1YyoEZiFY-1" target="S0M7ZQBZUYb1YyoEZiFY-17" edge="1">
          <mxGeometry relative="1" as="geometry" />
        </mxCell>
        <mxCell id="d4zSdRbsA9QHT7K2mf8D-3" style="edgeStyle=orthogonalEdgeStyle;rounded=0;orthogonalLoop=1;jettySize=auto;html=1;entryX=1.046;entryY=0.77;entryDx=0;entryDy=0;entryPerimeter=0;" edge="1" parent="1" source="S0M7ZQBZUYb1YyoEZiFY-1" target="d4zSdRbsA9QHT7K2mf8D-1">
          <mxGeometry relative="1" as="geometry" />
        </mxCell>
        <mxCell id="S0M7ZQBZUYb1YyoEZiFY-1" value="" style="shape=image;html=1;verticalAlign=top;verticalLabelPosition=bottom;labelBackgroundColor=#ffffff;imageAspect=0;aspect=fixed;image=https://cdn4.iconfinder.com/data/icons/logos-and-brands/512/272_Raspberry_Pi_logo-128.png;fontFamily=SF Pro;" parent="1" vertex="1">
          <mxGeometry x="390" y="350" width="98" height="98" as="geometry" />
        </mxCell>
        <mxCell id="S0M7ZQBZUYb1YyoEZiFY-10" value="" style="shape=image;html=1;verticalAlign=top;verticalLabelPosition=bottom;labelBackgroundColor=#ffffff;imageAspect=0;aspect=fixed;image=https://cdn2.iconfinder.com/data/icons/pack1-baco-flurry-icons-style/128/XAMPP.png" parent="1" vertex="1">
          <mxGeometry x="460" y="410" width="38" height="38" as="geometry" />
        </mxCell>
        <mxCell id="S0M7ZQBZUYb1YyoEZiFY-20" style="edgeStyle=orthogonalEdgeStyle;rounded=0;orthogonalLoop=1;jettySize=auto;html=1;" parent="1" source="S0M7ZQBZUYb1YyoEZiFY-17" target="S0M7ZQBZUYb1YyoEZiFY-19" edge="1">
          <mxGeometry relative="1" as="geometry" />
        </mxCell>
        <mxCell id="S0M7ZQBZUYb1YyoEZiFY-17" value="" style="shape=image;html=1;verticalAlign=top;verticalLabelPosition=bottom;labelBackgroundColor=#ffffff;imageAspect=0;aspect=fixed;image=https://cdn3.iconfinder.com/data/icons/google-material-design-icons/48/ic_settings_input_hdmi_48px-128.png;rotation=50;" parent="1" vertex="1">
          <mxGeometry x="560" y="320" width="48" height="48" as="geometry" />
        </mxCell>
        <mxCell id="S0M7ZQBZUYb1YyoEZiFY-19" value="" style="shape=image;html=1;verticalAlign=top;verticalLabelPosition=bottom;labelBackgroundColor=#ffffff;imageAspect=0;aspect=fixed;image=https://cdn2.iconfinder.com/data/icons/ios-7-icons/50/tv-128.png" parent="1" vertex="1">
          <mxGeometry x="660" y="280" width="128" height="128" as="geometry" />
        </mxCell>
        <mxCell id="S0M7ZQBZUYb1YyoEZiFY-21" value="" style="shape=image;html=1;verticalAlign=top;verticalLabelPosition=bottom;labelBackgroundColor=#ffffff;imageAspect=0;aspect=fixed;image=https://cdn4.iconfinder.com/data/icons/flat-brand-logo-2/512/lg-128.png" parent="1" vertex="1">
          <mxGeometry x="695" y="310" width="58" height="58" as="geometry" />
        </mxCell>
        <mxCell id="d4zSdRbsA9QHT7K2mf8D-2" style="edgeStyle=orthogonalEdgeStyle;rounded=0;orthogonalLoop=1;jettySize=auto;html=1;" edge="1" parent="1" source="d4zSdRbsA9QHT7K2mf8D-1">
          <mxGeometry relative="1" as="geometry">
            <mxPoint x="190" y="385" as="targetPoint" />
          </mxGeometry>
        </mxCell>
        <mxCell id="d4zSdRbsA9QHT7K2mf8D-7" style="edgeStyle=orthogonalEdgeStyle;rounded=0;orthogonalLoop=1;jettySize=auto;html=1;" edge="1" parent="1" source="d4zSdRbsA9QHT7K2mf8D-1">
          <mxGeometry relative="1" as="geometry">
            <mxPoint x="440" y="350" as="targetPoint" />
            <Array as="points">
              <mxPoint x="295" y="300" />
              <mxPoint x="440" y="300" />
            </Array>
          </mxGeometry>
        </mxCell>
        <mxCell id="d4zSdRbsA9QHT7K2mf8D-1" value="" style="points=[[0.005,0.09,0],[0.08,0,0],[0.76,0.25,0],[1,0.92,0],[0.91,0.995,0],[0.57,0.995,0],[0.045,0.955,0],[0.005,0.43,0]];verticalLabelPosition=bottom;html=1;verticalAlign=top;aspect=fixed;align=center;pointerEvents=1;shape=mxgraph.cisco19.3g_4g_indicator;fillColor=#005073;strokeColor=none;" vertex="1" parent="1">
          <mxGeometry x="270" y="360" width="50" height="50" as="geometry" />
        </mxCell>
        <mxCell id="d4zSdRbsA9QHT7K2mf8D-5" style="edgeStyle=orthogonalEdgeStyle;rounded=0;orthogonalLoop=1;jettySize=auto;html=1;entryX=0.389;entryY=0.999;entryDx=0;entryDy=0;entryPerimeter=0;" edge="1" parent="1" source="d4zSdRbsA9QHT7K2mf8D-4" target="d4zSdRbsA9QHT7K2mf8D-1">
          <mxGeometry relative="1" as="geometry">
            <mxPoint x="290" y="470" as="targetPoint" />
            <Array as="points">
              <mxPoint x="155" y="470" />
              <mxPoint x="290" y="470" />
            </Array>
          </mxGeometry>
        </mxCell>
        <mxCell id="d4zSdRbsA9QHT7K2mf8D-4" value="" style="aspect=fixed;pointerEvents=1;shadow=0;dashed=0;html=1;strokeColor=none;labelPosition=center;verticalLabelPosition=bottom;verticalAlign=top;align=center;fillColor=#00188D;shape=mxgraph.mscae.enterprise.keyboard" vertex="1" parent="1">
          <mxGeometry x="130" y="370" width="50" height="30" as="geometry" />
        </mxCell>
      </root>
    </mxGraphModel>
  </diagram>
</mxfile>
